<?xml version="1.0" ?><svg id="Layer_1" style="enable-background:new 0 0 100 100;" version="1.1" viewBox="0 0 100 100" xml:space="preserve" xmlns="http://www.w3.org/2000/svg" xmlns:xlink="http://www.w3.org/1999/xlink"><style type="text/css">
	.st0{fill:none;stroke:#000000;stroke-width:2;stroke-linecap:round;stroke-miterlimit:10;}
	.st1{fill:none;stroke:#000000;stroke-width:2;stroke-miterlimit:10;}
	.st2{fill:#FFFFFF;stroke:#000000;stroke-width:2;stroke-linecap:round;stroke-miterlimit:10;}
</style><path class="st0" d="M15,50.7l13.6-13.6c2-2,5.2-2,7.2,0l11.8,13.5"/><path class="st0" d="M85,72.7L59.3,45.5c-2-2-5.2-2-7.2,0L36.7,63.4L18.6,84.8"/><path class="st0" d="M15,21.7v-1.6c0-2.8,2.3-5.1,5.1-5.1h59.8c2.8,0,5.1,2.3,5.1,5.1v59.8c0,2.3-1.6,4.3-3.7,4.9  c-0.4,0.1-0.9,0.2-1.4,0.2H20.1c-2.8,0-5.1-2.3-5.1-5.1V41"/><circle class="st0" cx="55.5" cy="28.5" r="8.8"/></svg>